<?xml version="1.0" standalone="no"?>
<!DOCTYPE svg PUBLIC "-//W3C//DTD SVG 20010904//EN"
 "http://www.w3.org/TR/2001/REC-SVG-20010904/DTD/svg10.dtd">
<svg version="1.0" xmlns="http://www.w3.org/2000/svg"
 width="800.000000pt" height="800.000000pt" viewBox="0 0 800.000000 800.000000"
 preserveAspectRatio="xMidYMid meet">
<metadata>
Created by potrace 1.11, written by Peter Selinger 2001-2013
</metadata>
<g transform="translate(0.000000,800.000000) scale(0.100000,-0.100000)"
fill="#000000" stroke="none">
<path d="M0 3995 l0 -3365 4000 0 4000 0 0 3365 0 3365 -4000 0 -4000 0 0
-3365z m4210 2985 c0 -5 -4 -10 -10 -10 -5 0 -10 5 -10 10 0 6 5 10 10 10 6 0
10 -4 10 -10z m-433 -20 c3 -10 2 -11 -4 -4 -4 6 -15 14 -23 17 -11 5 -9 6 4
4 11 -1 21 -9 23 -17z m508 10 c7 -12 -2 -12 -30 0 -19 8 -19 9 2 9 12 1 25
-3 28 -9z m-589 -12 c4 -7 3 -8 -5 -4 -6 4 -18 2 -26 -4 -9 -8 -15 -8 -15 -2
0 9 15 19 32 21 4 1 10 -4 14 -11z m650 -1 c4 -4 0 -7 -9 -7 -9 0 -18 4 -21 9
-7 10 20 9 30 -2z m79 -25 c-3 -3 -11 0 -18 7 -9 10 -8 11 6 5 10 -3 15 -9 12
-12z m-885 -12 c-8 -5 -22 -9 -30 -9 -10 0 -8 3 5 9 27 12 43 12 25 0z m-50
-14 c0 -3 -4 -8 -10 -11 -5 -3 -10 -1 -10 4 0 6 5 11 10 11 6 0 10 -2 10 -4z
m1044 -5 c4 -5 -1 -8 -9 -7 -21 3 -31 16 -12 16 9 0 18 -4 21 -9z m91 -31 c3
-5 2 -10 -4 -10 -5 0 -13 5 -16 10 -3 6 -2 10 4 10 5 0 13 -4 16 -10z m46 -27
c13 -16 12 -17 -3 -4 -10 7 -18 15 -18 17 0 8 8 3 21 -13z m434 -303 c3 -5 1
-10 -4 -10 -6 0 -11 5 -11 10 0 6 2 10 4 10 3 0 8 -4 11 -10z m-1328 -222 c-3
-8 -6 -5 -6 6 -1 11 2 17 5 13 3 -3 4 -12 1 -19z m1603 -118 c0 -5 -7 -7 -15
-4 -8 4 -15 8 -15 10 0 2 7 4 15 4 8 0 15 -4 15 -10z m-2760 -34 c0 -2 -8 -10
-17 -17 -16 -13 -17 -12 -4 4 13 16 21 21 21 13z m2791 -43 c13 -16 12 -17 -3
-4 -10 7 -18 15 -18 17 0 8 8 3 21 -13z m39 -83 c0 -5 -2 -10 -4 -10 -3 0 -8
5 -11 10 -3 6 -1 10 4 10 6 0 11 -4 11 -10z m-2926 -94 c-3 -9 -10 -16 -15
-16 -6 0 -5 9 1 21 13 24 24 20 14 -5z m-51 -146 c-3 -12 -8 -19 -11 -16 -5 6
5 36 12 36 2 0 2 -9 -1 -20z m1675 -5 c-3 -3 -9 2 -12 12 -6 14 -5 15 5 6 7
-7 10 -15 7 -18z m1392 -15 c0 -5 -5 -10 -11 -10 -5 0 -7 5 -4 10 3 6 8 10 11
10 2 0 4 -4 4 -10z m4 -46 c3 -8 2 -12 -4 -9 -6 3 -10 10 -10 16 0 14 7 11 14
-7z m-1757 -39 c0 -8 -4 -12 -9 -9 -4 3 -8 9 -8 15 0 5 4 9 8 9 5 0 9 -7 9
-15z m273 -25 c-8 -5 -19 -10 -25 -10 -5 0 -3 5 5 10 8 5 20 10 25 10 6 0 3
-5 -5 -10z m-1611 -17 c0 -10 -4 -27 -9 -38 -6 -15 -8 -11 -7 17 1 21 5 38 10
38 4 0 7 -8 6 -17z m-334 -51 c-3 -3 -11 0 -18 7 -9 10 -8 11 6 5 10 -3 15 -9
12 -12z m42 -4 c-3 -8 -6 -5 -6 6 -1 11 2 17 5 13 3 -3 4 -12 1 -19z m-312 2
c-2 -3 -20 -7 -40 -8 -20 -2 -34 1 -31 6 3 5 21 9 40 9 19 0 33 -3 31 -7z
m402 -3 c3 -4 -12 -7 -35 -7 -23 0 -42 4 -42 9 0 10 67 8 77 -2z m1648 4 c3
-5 2 -12 -3 -15 -5 -3 -9 1 -9 9 0 17 3 19 12 6z m1915 -3 c0 -4 -9 -8 -20 -8
-11 0 -20 4 -20 9 0 6 9 9 20 8 11 -1 20 -5 20 -9z m340 2 c0 -5 -2 -10 -4
-10 -3 0 -8 5 -11 10 -3 6 -1 10 4 10 6 0 11 -4 11 -10z m97 -4 c4 -3 -14 -6
-40 -5 -26 1 -47 6 -47 10 0 9 78 5 87 -5z m-4507 -10 c0 -2 -11 -6 -25 -8
-14 -3 -25 -1 -25 3 0 5 11 9 25 9 14 0 25 -2 25 -4z m577 -2 c-3 -3 -12 -4
-19 -1 -8 3 -5 6 6 6 11 1 17 -2 13 -5z m1577 -30 c3 -8 2 -12 -4 -9 -6 3 -10
10 -10 16 0 14 7 11 14 -7z m2570 -13 c4 -5 -3 -7 -14 -4 -23 6 -26 13 -6 13
8 0 17 -4 20 -9z m-4934 -5 c0 -2 -7 -6 -15 -10 -8 -3 -15 -1 -15 4 0 6 7 10
15 10 8 0 15 -2 15 -4z m2362 -31 c3 -14 2 -27 -1 -30 -4 -2 -8 10 -9 26 -3
36 4 38 10 4z m2703 -5 c3 -6 -1 -7 -9 -4 -18 7 -21 14 -7 14 6 0 13 -4 16
-10z m-2708 -62 c-3 -8 -6 -5 -6 6 -1 11 2 17 5 13 3 -3 4 -12 1 -19z m0 -125
c-3 -10 -5 -4 -5 12 0 17 2 24 5 18 2 -7 2 -21 0 -30z m3024 10 c13 -16 12
-17 -3 -4 -10 7 -18 15 -18 17 0 8 8 3 21 -13z m-2886 -12 c3 -5 2 -12 -3 -15
-5 -3 -9 1 -9 9 0 17 3 19 12 6z m-2980 -31 c-3 -5 -12 -10 -18 -10 -7 0 -6 4
3 10 19 12 23 12 15 0z m2982 -52 c2 -17 0 -19 -7 -8 -5 8 -6 18 -4 22 8 12
10 10 11 -14z m2997 6 c3 -8 2 -12 -4 -9 -6 3 -10 10 -10 16 0 14 7 11 14 -7z
m-3134 -34 c0 -5 -2 -10 -4 -10 -3 0 -8 5 -11 10 -3 6 -1 10 4 10 6 0 11 -4
11 -10z m3 -35 c-3 -9 -8 -14 -10 -11 -3 3 -2 9 2 15 9 16 15 13 8 -4z m3208
-2 c13 -17 13 -17 -6 -3 -11 8 -22 16 -24 17 -2 2 0 3 6 3 6 0 17 -8 24 -17z
m-6196 -43 c8 -13 -5 -13 -25 0 -13 8 -13 10 2 10 9 0 20 -4 23 -10z m2989
-58 c2 -23 0 -42 -4 -42 -4 0 -8 21 -8 46 -2 57 7 53 12 -4z m3321 -22 c3 -6
-1 -7 -9 -4 -18 7 -21 14 -7 14 6 0 13 -4 16 -10z m33 -45 c-3 -3 -9 2 -12 12
-6 14 -5 15 5 6 7 -7 10 -15 7 -18z m-6078 11 c0 -3 -4 -8 -10 -11 -5 -3 -10
-1 -10 4 0 6 5 11 10 11 6 0 10 -2 10 -4z m-399 -83 c13 -16 12 -17 -3 -4 -10
7 -18 15 -18 17 0 8 8 3 21 -13z m6484 -49 c-8 -16 -15 -23 -15 -16 0 13 22
53 27 48 2 -2 -3 -16 -12 -32z m-3020 6 c3 -6 -1 -7 -9 -4 -18 7 -21 14 -7 14
6 0 13 -4 16 -10z m-699 -76 c-21 -20 -28 -17 -14 5 7 11 16 17 20 15 5 -3 2
-12 -6 -20z m-2312 -10 c3 -8 2 -12 -4 -9 -6 3 -10 10 -10 16 0 14 7 11 14 -7z
m6006 -8 c0 -3 -4 -8 -10 -11 -5 -3 -10 -1 -10 4 0 6 5 11 10 11 6 0 10 -2 10
-4z m-6296 -45 c-2 -3 -12 3 -22 13 -16 17 -16 18 5 5 12 -7 20 -15 17 -18z
m371 -34 c9 -16 14 -31 11 -34 -3 -4 -6 -1 -6 5 0 7 -17 31 -37 54 -29 32 -32
37 -11 22 14 -10 34 -32 43 -47z m118 40 c4 3 7 4 7 0 0 -17 -20 -14 -36 6
-19 22 -19 22 2 4 11 -9 24 -14 27 -10z m81 -26 c4 -5 -1 -8 -9 -7 -21 3 -31
16 -12 16 9 0 18 -4 21 -9z m-914 -26 c0 -1 -10 -10 -22 -21 -14 -12 -18 -13
-10 -3 6 9 10 18 7 21 -3 2 2 5 10 5 8 0 15 -1 15 -2z m401 -12 c13 -16 12
-17 -3 -4 -10 7 -18 15 -18 17 0 8 8 3 21 -13z m2462 -35 c-8 -15 -16 -28 -17
-28 -1 0 -1 13 2 28 2 16 9 29 16 29 10 0 10 -7 -1 -29z m-1879 -46 c3 -5 -1
-9 -9 -9 -8 0 -12 4 -9 9 3 4 7 8 9 8 2 0 6 -4 9 -8z m-304 -22 c-8 -5 -19
-10 -25 -10 -5 0 -3 5 5 10 8 5 20 10 25 10 6 0 3 -5 -5 -10z m2400 0 c0 -5
-2 -10 -4 -10 -3 0 -8 5 -11 10 -3 6 -1 10 4 10 6 0 11 -4 11 -10z m586 -2 c4
-7 3 -10 -1 -5 -5 4 -18 -1 -29 -10 -21 -18 -21 -18 -2 5 22 26 23 26 32 10z
m-269 -50 c2 -18 1 -19 -6 -8 -5 8 -7 18 -5 22 3 4 0 8 -5 8 -6 0 -11 5 -11
12 0 21 23 -9 27 -34z m-394 17 c-3 -9 -8 -14 -10 -11 -3 3 -2 9 2 15 9 16 15
13 8 -4z m101 0 c3 -8 1 -15 -4 -15 -6 0 -10 7 -10 15 0 8 2 15 4 15 2 0 6 -7
10 -15z m-3182 -27 c-7 -7 -12 -20 -12 -30 0 -10 -4 -18 -10 -18 -6 0 -6 9 1
26 13 37 20 46 27 39 3 -3 0 -11 -6 -17z m1228 -4 c0 -2 -9 0 -20 6 -11 6 -20
13 -20 16 0 2 9 0 20 -6 11 -6 20 -13 20 -16z m2560 -14 c0 -16 -2 -30 -4 -30
-2 0 -6 14 -8 30 -3 17 -1 30 4 30 4 0 8 -13 8 -30z m-603 3 c0 -9 -4 -10 -14
-2 -7 6 -13 12 -13 14 0 1 6 2 13 2 8 0 14 -6 14 -14z m-110 -25 c-3 -8 -6 -5
-6 6 -1 11 2 17 5 13 3 -3 4 -12 1 -19z m3234 -15 c-8 -15 -10 -15 -11 -2 0
17 10 32 18 25 2 -3 -1 -13 -7 -23z m-3124 -3 c-2 -11 -6 -22 -9 -26 -4 -3 -5
2 -3 13 2 10 4 21 4 26 1 4 3 7 6 7 3 0 4 -9 2 -20z m741 -5 c-3 -3 -9 2 -12
12 -6 14 -5 15 5 6 7 -7 10 -15 7 -18z m-141 -17 c-3 -8 -6 -5 -6 6 -1 11 2
17 5 13 3 -3 4 -12 1 -19z m-710 -20 c-3 -8 -6 -5 -6 6 -1 11 2 17 5 13 3 -3
4 -12 1 -19z m-1812 2 c3 -6 -1 -7 -9 -4 -18 7 -21 14 -7 14 6 0 13 -4 16 -10z
m2425 -22 c0 -19 -16 -5 -17 14 -2 18 0 20 7 8 5 -8 10 -18 10 -22z m-502 -9
c-1 -17 -5 -32 -9 -35 -4 -2 -6 4 -4 13 2 10 4 26 4 36 1 9 3 17 6 17 3 0 4
-14 3 -31z m606 5 c3 -8 2 -12 -4 -9 -6 3 -10 10 -10 16 0 14 7 11 14 -7z
m-2483 -12 c-7 -2 -18 1 -23 6 -8 8 -4 9 13 5 13 -4 18 -8 10 -11z m5719 -9
c0 -21 -3 -24 -9 -14 -5 8 -7 20 -4 28 8 21 13 15 13 -14z m-6312 -28 c12 -14
18 -25 13 -25 -5 0 -16 11 -25 25 -9 14 -15 25 -13 25 2 0 13 -11 25 -25z
m797 -13 c-3 -3 -11 0 -18 7 -9 10 -8 11 6 5 10 -3 15 -9 12 -12z m2172 -2 c1
-11 -2 -20 -7 -20 -6 0 -7 17 -1 38 3 8 7 -1 8 -18z m-500 -12 c-3 -8 -6 -5
-6 6 -1 11 2 17 5 13 3 -3 4 -12 1 -19z m2548 12 c-3 -5 -12 -10 -18 -10 -7 0
-6 4 3 10 19 12 23 12 15 0z m-4155 -38 c-7 -3 -19 3 -28 13 -16 15 -15 16 12
4 15 -7 23 -15 16 -17z m4645 18 c-3 -5 -11 -10 -16 -10 -6 0 -7 5 -4 10 3 6
11 10 16 10 6 0 7 -4 4 -10z m-42 -7 c3 -5 -5 -8 -18 -8 -13 0 -21 3 -18 8 2
4 10 7 18 7 8 0 16 -3 18 -7z m-2996 -30 c1 -24 0 -25 -6 -8 -7 17 -6 35 2 35
2 0 3 -12 4 -27z m-2433 1 c3 -8 2 -12 -4 -9 -6 3 -10 10 -10 16 0 14 7 11 14
-7z m706 -10 c0 -2 -9 0 -20 6 -11 6 -20 13 -20 16 0 2 9 0 20 -6 11 -6 20
-13 20 -16z m2468 -9 c-3 -3 -9 2 -12 12 -6 14 -5 15 5 6 7 -7 10 -15 7 -18z
m-228 11 c0 -3 -4 -8 -10 -11 -5 -3 -10 -1 -10 4 0 6 5 11 10 11 6 0 10 -2 10
-4z m3348 -21 c-3 -3 -9 2 -12 12 -6 14 -5 15 5 6 7 -7 10 -15 7 -18z m-5407
-2 c13 -16 12 -17 -3 -4 -10 7 -18 15 -18 17 0 8 8 3 21 -13z m-1704 -18 c-1
-13 -6 -27 -9 -31 -4 -3 -5 2 -3 13 2 10 4 24 4 31 1 6 3 12 6 12 3 0 4 -11 2
-25z m843 -10 c0 -5 -5 -3 -10 5 -5 8 -10 20 -10 25 0 6 5 3 10 -5 5 -8 10
-19 10 -25z m1000 31 c0 -3 -4 -8 -10 -11 -5 -3 -10 -1 -10 4 0 6 5 11 10 11
6 0 10 -2 10 -4z m-275 -16 c3 -6 -1 -7 -9 -4 -18 7 -21 14 -7 14 6 0 13 -4
16 -10z m2423 -15 c-3 -3 -9 2 -12 12 -6 14 -5 15 5 6 7 -7 10 -15 7 -18z
m-728 11 c0 -3 -4 -8 -10 -11 -5 -3 -10 -1 -10 4 0 6 5 11 10 11 6 0 10 -2 10
-4z m3860 0 c0 -3 -4 -8 -10 -11 -5 -3 -10 -1 -10 4 0 6 5 11 10 11 6 0 10 -2
10 -4z m-5516 -32 c5 -14 4 -15 -9 -4 -17 14 -19 20 -6 20 5 0 12 -7 15 -16z
m-759 -3 c-3 -5 -1 -12 5 -16 5 -3 10 -11 10 -18 0 -6 -6 -2 -14 8 -13 18 -13
35 0 35 3 0 3 -4 -1 -9z m475 -11 c0 -5 -7 -7 -15 -4 -8 4 -15 8 -15 10 0 2 7
4 15 4 8 0 15 -4 15 -10z m320 -15 c7 -9 8 -15 2 -15 -5 0 -12 7 -16 15 -3 8
-4 15 -2 15 2 0 9 -7 16 -15z m-1655 -55 c0 -22 -3 -40 -8 -40 -8 0 -8 56 1
73 6 13 7 8 7 -33z m1936 13 c13 -16 12 -17 -3 -4 -10 7 -18 15 -18 17 0 8 8
3 21 -13z m-810 -10 c13 -16 12 -17 -3 -4 -10 7 -18 15 -18 17 0 8 8 3 21 -13z
m2877 -8 c-3 -3 -9 2 -12 12 -6 14 -5 15 5 6 7 -7 10 -15 7 -18z m-3111 0 c0
-8 -4 -12 -9 -9 -4 3 -8 9 -8 15 0 5 4 9 8 9 5 0 9 -7 9 -15z m2877 -3 c3 -5
-1 -9 -9 -9 -8 0 -12 4 -9 9 3 4 7 8 9 8 2 0 6 -4 9 -8z m-2353 -19 c13 -16
12 -17 -3 -4 -17 13 -22 21 -14 21 2 0 10 -8 17 -17z m-266 -13 c10 -11 16
-20 13 -20 -3 0 -13 9 -23 20 -10 11 -16 20 -13 20 3 0 13 -9 23 -20z m595 14
c0 -8 -19 -13 -24 -6 -3 5 1 9 9 9 8 0 15 -2 15 -3z m2265 -4 c3 -5 2 -10 -4
-10 -5 0 -13 5 -16 10 -3 6 -2 10 4 10 5 0 13 -4 16 -10z m-4012 -99 c3 -45 2
-69 -4 -60 -8 13 -13 147 -5 138 2 -2 6 -37 9 -78z m1077 34 c0 -12 -20 6 -31
28 l-11 22 21 -22 c11 -12 21 -25 21 -28z m2928 20 c-3 -3 -9 2 -12 12 -6 14
-5 15 5 6 7 -7 10 -15 7 -18z m-3075 0 c4 -8 3 -16 -1 -19 -4 -3 -9 4 -9 15
-2 23 3 25 10 4z m87 -20 c0 -8 -2 -15 -4 -15 -2 0 -6 7 -10 15 -3 8 -1 15 4
15 6 0 10 -7 10 -15z m775 5 c3 -5 1 -10 -4 -10 -6 0 -11 5 -11 10 0 6 2 10 4
10 3 0 8 -4 11 -10z m1468 -5 c-3 -9 -8 -14 -10 -11 -3 3 -2 9 2 15 9 16 15
13 8 -4z m-1262 -12 c13 -16 12 -17 -3 -4 -10 7 -18 15 -18 17 0 8 8 3 21 -13z
m2006 -5 c-3 -8 -6 -5 -6 6 -1 11 2 17 5 13 3 -3 4 -12 1 -19z m-2912 -8 c-3
-6 1 -13 9 -16 9 -3 16 -13 16 -21 0 -11 -6 -8 -19 8 -17 21 -19 39 -5 39 3 0
2 -5 -1 -10z m2911 -25 c-3 -8 -1 -15 5 -15 6 0 7 -5 3 -11 -4 -8 -9 -7 -14 2
-8 12 -3 39 7 39 3 0 3 -7 -1 -15z m1414 11 c0 -2 -8 -10 -17 -17 -16 -13 -17
-12 -4 4 13 16 21 21 21 13z m-4460 -16 c0 -5 -5 -10 -11 -10 -5 0 -7 5 -4 10
3 6 8 10 11 10 2 0 4 -4 4 -10z m2308 -15 c-3 -3 -9 2 -12 12 -6 14 -5 15 5 6
7 -7 10 -15 7 -18z m2837 -5 c-3 -5 -12 -10 -18 -10 -7 0 -6 4 3 10 19 12 23
12 15 0z m-4954 -27 c13 -16 12 -17 -3 -4 -10 7 -18 15 -18 17 0 8 8 3 21 -13z
m789 7 c0 -5 -4 -10 -10 -10 -5 0 -10 5 -10 10 0 6 5 10 10 10 6 0 10 -4 10
-10z m1328 -15 c-3 -3 -9 2 -12 12 -6 14 -5 15 5 6 7 -7 10 -15 7 -18z m-2183
-21 c9 -15 12 -23 6 -20 -11 7 -35 46 -28 46 3 0 12 -12 22 -26z m2072 -6 c-3
-7 -5 -2 -5 12 0 14 2 19 5 13 2 -7 2 -19 0 -25z m-1277 6 c0 -8 -5 -12 -10
-9 -6 4 -8 11 -5 16 9 14 15 11 15 -7z m1384 -24 c-6 -6 -10 -3 -10 10 0 13 4
16 10 10 7 -7 7 -13 0 -20z m506 26 c0 -3 -4 -8 -10 -11 -5 -3 -10 -1 -10 4 0
6 5 11 10 11 6 0 10 -2 10 -4z m235 -6 c-3 -5 -1 -10 6 -10 7 0 10 -3 6 -6 -9
-9 -28 6 -22 17 4 5 8 9 11 9 3 0 2 -4 -1 -10z m-1969 -46 c3 -16 2 -26 -1
-23 -3 4 -8 19 -11 35 -3 16 -2 26 1 23 3 -4 8 -19 11 -35z m-1015 -1 c13 -16
12 -17 -3 -4 -10 7 -18 15 -18 17 0 8 8 3 21 -13z m93 1 c3 -8 2 -12 -4 -9 -6
3 -10 10 -10 16 0 14 7 11 14 -7z m676 6 c0 -5 -2 -10 -4 -10 -3 0 -8 5 -11
10 -3 6 -1 10 4 10 6 0 11 -4 11 -10z m1367 -22 c-3 -8 -6 -5 -6 6 -1 11 2 17
5 13 3 -3 4 -12 1 -19z m-1347 -12 c0 -3 -4 -8 -10 -11 -5 -3 -10 -1 -10 4 0
6 5 11 10 11 6 0 10 -2 10 -4z m-410 -26 c0 -5 -2 -10 -4 -10 -3 0 -8 5 -11
10 -3 6 -1 10 4 10 6 0 11 -4 11 -10z m635 0 c3 -5 1 -10 -4 -10 -6 0 -11 5
-11 10 0 6 2 10 4 10 3 0 8 -4 11 -10z m1839 -6 c3 -8 2 -12 -4 -9 -6 3 -10
10 -10 16 0 14 7 11 14 -7z m1359 1 c-3 -9 -8 -14 -10 -11 -3 3 -2 9 2 15 9
16 15 13 8 -4z m-1226 -10 c0 -8 -4 -12 -9 -9 -5 3 -6 10 -3 15 9 13 12 11 12
-6z m-2579 -20 c-3 -3 -9 2 -12 12 -6 14 -5 15 5 6 7 -7 10 -15 7 -18z m505
10 c-3 -9 -8 -14 -10 -11 -3 3 -2 9 2 15 9 16 15 13 8 -4z m1224 -17 c-3 -7
-5 -2 -5 12 0 14 2 19 5 13 2 -7 2 -19 0 -25z m3963 22 c0 -5 -2 -10 -4 -10
-3 0 -8 5 -11 10 -3 6 -1 10 4 10 6 0 11 -4 11 -10z m-5522 -25 c-3 -3 -9 2
-12 12 -6 14 -5 15 5 6 7 -7 10 -15 7 -18z m1662 10 c0 -8 -2 -15 -4 -15 -2 0
-6 7 -10 15 -3 8 -1 15 4 15 6 0 10 -7 10 -15z m-2075 -13 c-3 -3 -11 0 -18 7
-9 10 -8 11 6 5 10 -3 15 -9 12 -12z m2375 14 c0 -3 -4 -8 -10 -11 -5 -3 -10
-1 -10 4 0 6 5 11 10 11 6 0 10 -2 10 -4z m307 -28 c-3 -7 -5 -2 -5 12 0 14 2
19 5 13 2 -7 2 -19 0 -25z m-2374 -27 c-2 -3 -16 8 -31 24 l-27 28 31 -24 c17
-13 30 -26 27 -28z m5615 25 c-1 -14 -5 -23 -9 -20 -7 4 0 44 7 44 2 0 3 -11
2 -24z m-1947 -19 l-24 -22 19 27 c10 14 21 24 23 22 3 -3 -6 -15 -18 -27z
m-4054 -3 c-3 -3 -12 -4 -19 -1 -8 3 -5 6 6 6 11 1 17 -2 13 -5z m2693 -14 c0
-5 -5 -10 -11 -10 -5 0 -7 5 -4 10 3 6 8 10 11 10 2 0 4 -4 4 -10z m-2656 -36
c9 -24 2 -26 -12 -4 -7 11 -8 20 -3 20 5 0 12 -7 15 -16z m862 1 c-1 -8 -8
-21 -16 -28 -7 -6 -11 -7 -8 -2 3 6 8 18 11 28 8 21 16 23 13 2z m5075 -42
c-12 -20 -14 -14 -5 12 4 9 9 14 11 11 3 -2 0 -13 -6 -23z m-5770 -10 c13 -16
12 -17 -3 -4 -10 7 -18 15 -18 17 0 8 8 3 21 -13z m2704 7 c3 -5 1 -10 -4 -10
-6 0 -11 5 -11 10 0 6 2 10 4 10 3 0 8 -4 11 -10z m-14 -43 c-10 -9 -11 -8 -5
6 3 10 9 15 12 12 3 -3 0 -11 -7 -18z m-2301 3 c0 -5 -2 -10 -4 -10 -3 0 -8 5
-11 10 -3 6 -1 10 4 10 6 0 11 -4 11 -10z m2307 -35 c0 -8 -4 -12 -9 -9 -5 3
-6 10 -3 15 9 13 12 11 12 -6z m-2582 -5 c3 -5 1 -10 -4 -10 -6 0 -11 5 -11
10 0 6 2 10 4 10 3 0 8 -4 11 -10z m2585 -35 c0 -8 -4 -15 -10 -15 -5 0 -7 7
-4 15 4 8 8 15 10 15 2 0 4 -7 4 -15z m3018 -50 c-6 -14 -15 -25 -20 -25 -5 0
-2 10 7 23 8 13 12 27 8 32 -5 4 -3 5 4 1 9 -5 10 -13 1 -31z m-3470 0 c-3 -3
-9 2 -12 12 -6 14 -5 15 5 6 7 -7 10 -15 7 -18z m366 17 c3 -5 -1 -9 -9 -9 -8
0 -12 4 -9 9 3 4 7 8 9 8 2 0 6 -4 9 -8z m-2035 -5 c-2 -2 -17 -11 -34 -21
l-30 -17 24 20 c13 12 28 21 34 21 6 0 8 -1 6 -3z m1371 -1 c0 -2 -7 -7 -16
-10 -8 -3 -12 -2 -9 4 6 10 25 14 25 6z m60 -6 c0 -5 -2 -10 -4 -10 -3 0 -8 5
-11 10 -3 6 -1 10 4 10 6 0 11 -4 11 -10z m150 4 c0 -8 -19 -13 -24 -6 -3 5 1
9 9 9 8 0 15 -2 15 -3z m190 0 c0 -8 -19 -13 -24 -6 -3 5 1 9 9 9 8 0 15 -2
15 -3z m-2266 -30 c3 -8 2 -12 -4 -9 -6 3 -10 10 -10 16 0 14 7 11 14 -7z
m-1246 -49 c-3 -3 -9 2 -12 12 -6 14 -5 15 5 6 7 -7 10 -15 7 -18z m1362 5 c0
-5 -7 -7 -15 -4 -8 4 -15 8 -15 10 0 2 7 4 15 4 8 0 15 -4 15 -10z m240 -3 c0
-5 -6 -7 -14 -4 -7 3 -18 1 -24 -5 -6 -6 -12 -6 -17 3 -5 7 -4 10 3 5 6 -3 13
-3 16 2 7 12 36 11 36 -1z m3640 -1 c0 -2 -7 -7 -16 -10 -8 -3 -12 -2 -9 4 6
10 25 14 25 6z m1525 -146 c-3 -5 -12 -10 -18 -10 -7 0 -6 4 3 10 19 12 23 12
15 0z m-2102 -50 c-5 -19 -23 -29 -23 -12 0 7 20 32 26 32 1 0 0 -9 -3 -20z
m2081 5 c-4 -8 -8 -15 -10 -15 -2 0 -4 7 -4 15 0 8 4 15 10 15 5 0 7 -7 4 -15z
m-1774 -9 c0 -3 -4 -8 -10 -11 -5 -3 -10 -1 -10 4 0 6 5 11 10 11 6 0 10 -2
10 -4z m1723 -61 c-15 -19 -31 -35 -35 -35 -7 0 11 25 40 56 26 27 22 14 -5
-21z m-6493 -47 c0 -6 -6 -5 -15 2 -8 7 -15 14 -15 16 0 2 7 1 15 -2 8 -4 15
-11 15 -16z m4403 -28 c-3 -12 -8 -19 -11 -16 -5 6 5 36 12 36 2 0 2 -9 -1
-20z m-4335 -46 c2 -1 0 -4 -5 -7 -4 -2 -21 12 -38 32 l-29 36 34 -30 c19 -16
36 -31 38 -31z m4402 -18 c0 -2 -7 -7 -16 -10 -8 -3 -12 -2 -9 4 6 10 25 14
25 6z m-4086 -262 c3 -8 2 -12 -4 -9 -6 3 -10 10 -10 16 0 14 7 11 14 -7z m59
-33 c15 -8 27 -18 27 -22 0 -5 -16 1 -35 12 -19 12 -35 23 -35 26 0 2 3 3 8 1
4 -2 19 -10 35 -17z m5596 16 c-2 -1 -12 -9 -22 -16 -15 -12 -17 -12 -11 3 3
9 13 16 22 16 8 0 13 -1 11 -3z m-5261 -156 c11 -7 11 -9 -1 -14 -9 -3 -18 1
-21 9 -6 16 2 18 22 5z m4902 -1 c0 -5 -5 -10 -11 -10 -5 0 -7 5 -4 10 3 6 8
10 11 10 2 0 4 -4 4 -10z m-4816 -39 c-2 -3 -12 3 -22 13 -16 17 -16 18 5 5
12 -7 20 -15 17 -18z m341 -600 c3 -5 2 -12 -3 -15 -5 -3 -9 1 -9 9 0 17 3 19
12 6z m3985 -115 c0 -2 -8 -10 -17 -17 -16 -13 -17 -12 -4 4 13 16 21 21 21
13z m-105 -36 c-3 -5 -14 -10 -23 -10 -15 0 -15 2 -2 10 20 13 33 13 25 0z
m-55 -10 c0 -5 -8 -10 -17 -10 -15 0 -16 2 -3 10 19 12 20 12 20 0z m-90 -20
c-20 -13 -33 -13 -25 0 3 6 14 10 23 10 15 0 15 -2 2 -10z m-104 -35 c-11 -8
-27 -15 -35 -15 -9 1 -2 7 14 15 39 18 44 18 21 0z m-3635 -28 c-10 -9 -11 -8
-5 6 3 10 9 15 12 12 3 -3 0 -11 -7 -18z m3569 18 c0 -2 -9 -9 -20 -15 -12 -6
-20 -7 -20 -1 0 5 8 12 18 14 9 3 18 5 20 6 1 0 2 -1 2 -4z m379 -9 c-9 -10
-59 -14 -54 -5 4 5 18 9 32 9 15 0 24 -2 22 -4z m-569 -56 c-18 -12 -53 -13
-46 -2 2 4 17 8 33 10 21 1 24 -1 13 -8z m310 0 c0 -5 -4 -10 -10 -10 -5 0
-10 5 -10 10 0 6 5 10 10 10 6 0 10 -4 10 -10z m-32 -15 c-10 -10 -49 -14 -43
-4 4 5 16 9 27 9 12 0 19 -2 16 -5z m-118 -40 c-7 -8 -17 -15 -23 -15 -6 0 -2
7 9 15 25 19 30 19 14 0z m-3332 -31 l27 -25 -32 18 c-18 10 -33 21 -33 26 0
13 10 8 38 -19z m2858 1 c-20 -15 -36 -19 -36 -10 0 5 38 23 50 24 3 0 -4 -6
-14 -14z m400 -3 c-3 -5 -17 -12 -31 -14 -29 -6 -26 -1 7 17 25 13 33 12 24
-3z m-3316 -48 c0 -8 -19 -13 -24 -6 -3 5 1 9 9 9 8 0 15 -2 15 -3z m3210 0
c0 -8 -19 -13 -24 -6 -3 5 1 9 9 9 8 0 15 -2 15 -3z m590 -4 c0 -13 -12 -19
-26 -13 -21 8 -17 19 6 19 11 0 20 -3 20 -6z m-1070 -4 c0 -2 -11 -6 -25 -8
-13 -3 -22 -1 -19 3 5 9 44 13 44 5z m-86 -17 c-7 -13 -43 -17 -38 -5 2 6 13
12 24 12 10 0 17 -3 14 -7z m1051 0 c-5 -7 -65 -18 -65 -12 0 5 41 20 56 20 7
0 11 -4 9 -8z m-1260 -48 c-13 -11 -74 -31 -94 -30 -9 0 9 8 39 19 68 22 66
22 55 11z m581 -8 c-10 -11 -37 -12 -30 -2 3 5 12 9 21 9 9 0 13 -3 9 -7z
m469 0 c-11 -3 -24 -9 -29 -14 -6 -5 -15 -9 -20 -9 -6 0 -2 7 8 15 11 8 29 14
40 14 20 -1 21 -1 1 -6z m-3290 -43 c3 -5 1 -10 -4 -10 -6 0 -11 5 -11 10 0 6
2 10 4 10 3 0 8 -4 11 -10z m2705 6 c0 -3 -4 -8 -10 -11 -5 -3 -10 -1 -10 4 0
6 5 11 10 11 6 0 10 -2 10 -4z m-2655 -28 c5 4 5 1 1 -6 -6 -10 -11 -10 -22
-1 -8 6 -14 14 -14 16 0 3 6 0 13 -6 8 -6 18 -7 22 -3z m1908 -5 c-7 -2 -19
-2 -25 0 -7 3 -2 5 12 5 14 0 19 -2 13 -5z m-1559 -24 c-3 -5 -14 -5 -25 1
-26 14 -24 18 6 12 14 -2 22 -8 19 -13z m1461 11 c-3 -5 -18 -10 -33 -9 l-27
1 25 8 c35 11 42 11 35 0z m-1735 -22 c0 -5 -9 -4 -20 2 -11 6 -20 12 -20 14
0 2 9 2 20 -1 11 -3 20 -9 20 -15z m334 -4 c3 -8 2 -12 -4 -9 -6 3 -10 10 -10
16 0 14 7 11 14 -7z m2085 13 c-2 -1 -13 -9 -24 -17 -19 -14 -19 -14 -6 3 7 9
18 17 24 17 6 0 8 -1 6 -3z m-845 -15 c2 -4 -4 -8 -14 -8 -10 0 -16 4 -14 8 3
4 9 8 14 8 5 0 11 -4 14 -8z m786 -6 c0 -3 -4 -8 -10 -11 -5 -3 -10 -1 -10 4
0 6 5 11 10 11 6 0 10 -2 10 -4z m-2269 -33 c13 -15 12 -15 -8 -4 -24 12 -29
21 -14 21 5 0 15 -7 22 -17z m463 6 c4 -3 -9 -5 -28 -5 -19 1 -37 4 -41 8 -4
3 9 6 29 4 19 -1 37 -4 40 -7z m846 3 c0 -4 -11 -9 -26 -10 -14 -1 -23 2 -19
8 7 12 45 14 45 2z m900 0 c0 -5 -7 -9 -15 -9 -8 0 -15 4 -15 9 0 4 7 8 15 8
8 0 15 -4 15 -8z m-1020 -14 c0 -5 -13 -8 -30 -8 -16 0 -30 3 -30 8 0 4 14 7
30 7 17 0 30 -3 30 -7z m975 2 c-3 -5 -14 -10 -23 -9 -14 0 -13 2 3 9 27 11
27 11 20 0z m-1515 -10 c0 -5 -2 -10 -4 -10 -3 0 -8 5 -11 10 -3 6 -1 10 4 10
6 0 11 -4 11 -10z m463 0 c3 -3 -24 -5 -59 -6 -35 0 -64 3 -64 7 0 7 116 7
123 -1z m1577 0 c0 -5 -5 -10 -11 -10 -5 0 -7 5 -4 10 3 6 8 10 11 10 2 0 4
-4 4 -10z m-600 -4 c0 -2 -7 -7 -16 -10 -8 -3 -12 -2 -9 4 6 10 25 14 25 6z
m-46 -14 c3 -5 -1 -9 -9 -9 -8 0 -12 4 -9 9 3 4 7 8 9 8 2 0 6 -4 9 -8z m551
-22 c-3 -5 -12 -10 -18 -10 -7 0 -6 4 3 10 19 12 23 12 15 0z m-2839 -19 c1
-6 0 -7 -3 -1 -2 5 -9 8 -13 5 -5 -3 -11 -1 -14 4 -4 5 2 8 11 7 9 -2 18 -8
19 -15z m510 -18 c-6 -6 -36 9 -36 18 0 5 9 4 20 -3 10 -7 18 -14 16 -15z
m1614 7 c-19 -13 -30 -13 -30 0 0 6 10 10 23 10 18 0 19 -2 7 -10z m-1393 -53
c10 -11 -30 -8 -47 3 -11 7 -8 8 13 6 15 -1 30 -6 34 -9z m1140 1 c-16 -6 -33
-6 -37 -2 -5 5 7 10 28 11 37 2 37 2 9 -9z m753 2 c0 -5 -5 -10 -11 -10 -5 0
-7 5 -4 10 3 6 8 10 11 10 2 0 4 -4 4 -10z m-900 -16 c0 -8 -19 -13 -24 -6 -3
5 1 9 9 9 8 0 15 -2 15 -3z m-765 -14 c-3 -5 -12 -10 -18 -10 -7 0 -6 4 3 10
19 12 23 12 15 0z m1585 6 c0 -2 -7 -7 -16 -10 -8 -3 -12 -2 -9 4 6 10 25 14
25 6z m-1520 -10 c0 -11 -19 -15 -25 -6 -3 5 1 10 9 10 9 0 16 -2 16 -4z m65
-6 c3 -5 1 -10 -4 -10 -6 0 -11 5 -11 10 0 6 2 10 4 10 3 0 8 -4 11 -10z m105
4 c0 -8 -19 -13 -24 -6 -3 5 1 9 9 9 8 0 15 -2 15 -3z m120 -4 c0 -5 -4 -10
-10 -10 -5 0 -10 5 -10 10 0 6 5 10 10 10 6 0 10 -4 10 -10z m237 4 c-3 -3
-12 -4 -19 -1 -8 3 -5 6 6 6 11 1 17 -2 13 -5z m-1287 -24 c3 -1 8 -2 13 -1 4
0 7 -3 7 -9 0 -13 -17 -13 -25 0 -4 6 -10 8 -15 5 -5 -3 -11 -1 -14 4 -5 8 15
8 34 1z m2150 -4 c0 -6 -93 -37 -97 -32 -2 2 15 11 39 19 47 17 58 19 58 13z
m-2105 -16 c3 -5 1 -10 -4 -10 -6 0 -11 5 -11 10 0 6 2 10 4 10 3 0 8 -4 11
-10z m1945 -30 c0 -5 -5 -10 -11 -10 -5 0 -7 5 -4 10 3 6 8 10 11 10 2 0 4 -4
4 -10z m-1760 -36 c0 -2 -7 -4 -15 -4 -8 0 -15 4 -15 10 0 5 7 7 15 4 8 -4 15
-8 15 -10z m75 -14 l20 -9 -20 0 c-11 0 -29 4 -40 9 l-20 9 20 0 c11 0 29 -4
40 -9z m1479 -2 c-3 -4 -15 -8 -27 -8 -15 0 -18 3 -9 8 17 11 43 11 36 0z
m-57 -14 c-3 -3 -12 -4 -19 -1 -8 3 -5 6 6 6 11 1 17 -2 13 -5z m-1277 -20 c0
-8 -19 -13 -24 -6 -3 5 1 9 9 9 8 0 15 -2 15 -3z m125 -23 c2 -4 -9 -5 -26 -3
-16 2 -31 7 -34 11 -2 4 9 5 26 3 16 -2 31 -7 34 -11z m895 10 c0 -11 -49 -21
-55 -10 -3 4 7 10 22 12 16 2 29 5 31 6 1 0 2 -3 2 -8z m54 0 c-8 -9 -44 -11
-44 -3 0 4 11 8 25 8 13 0 22 -2 19 -5z m-257 -26 c0 -8 -4 -12 -9 -9 -5 3 -6
10 -3 15 9 13 12 11 12 -6z m-417 -4 c0 -6 -4 -12 -8 -15 -5 -3 -9 1 -9 9 0 8
4 15 9 15 4 0 8 -4 8 -9z m265 -1 c3 -6 -1 -7 -9 -4 -18 7 -21 14 -7 14 6 0
13 -4 16 -10z m115 4 c-36 -8 -100 -9 -100 -2 0 5 26 7 58 7 31 -1 50 -3 42
-5z"/>
</g>
</svg>
